<svg width="24" height="24" viewBox="0 0 24 24" fill="none" xmlns="http://www.w3.org/2000/svg">
<path d="M13.83 18.9998C13.6806 19.0003 13.533 18.9673 13.398 18.9033C13.263 18.8393 13.1441 18.7458 13.05 18.6298L8.22001 12.6298C8.07293 12.4509 7.99252 12.2264 7.99252 11.9948C7.99252 11.7632 8.07293 11.5387 8.22001 11.3598L13.22 5.35979C13.3897 5.15557 13.6337 5.02715 13.8981 5.00277C14.1625 4.97839 14.4258 5.06005 14.63 5.22979C14.8342 5.39953 14.9627 5.64344 14.987 5.90786C15.0114 6.17229 14.9297 6.43557 14.76 6.63979L10.29 11.9998L14.61 17.3598C14.7323 17.5066 14.81 17.6853 14.8339 17.8749C14.8577 18.0644 14.8268 18.2568 14.7448 18.4294C14.6627 18.6019 14.5329 18.7473 14.3708 18.8484C14.2087 18.9495 14.021 19.002 13.83 18.9998Z" fill="black"/>
</svg>
